<?xml version="1.0" encoding="UTF-8" standalone="no"?>
<!-- Generator: Gravit.io -->
<svg xmlns="http://www.w3.org/2000/svg" xmlns:xlink="http://www.w3.org/1999/xlink" style="isolation:isolate" viewBox="1116.901 477.038 588.336 325.924" width="588.336" height="325.924"><g><path d=" M 1120.64 711.273 C 1128.799 707.347 1154.83 696.365 1182.64 722.273 C 1210.451 748.181 1253.061 777.096 1293.64 769.273 C 1337.64 813.773 1390.14 803.273 1422.64 769.273 C 1454.14 778.273 1533.14 786.273 1562.64 731.273 C 1578.131 748.757 1617.228 773.289 1659.64 744.273 C 1702.053 715.257 1716.894 664.841 1676.64 634.273 C 1692.03 618.326 1674.64 519.94 1574.64 554.273 C 1527.398 445.152 1356.762 470.156 1334.64 564.273 C 1312.124 563.375 1261.247 574.858 1253.64 647.273 C 1233.047 710.544 1211.115 702.035 1201.64 692.273 C 1178.68 668.614 1137.46 649.781 1120.64 711.273 Z " fill="rgb(255,0,55)"/><path d=" M 1462.64 579.69 L 1470.64 620.6 Q 1517.82 649.299 1554.294 611.6 Q 1590.769 573.901 1565.64 579.69 C 1526.64 636.1 1481.64 625.1 1462.64 579.69 Z " fill="rgb(147,43,43)"/><path d=" M 1438.116 740.598 L 1429.417 761.136 Q 1510.301 792.094 1546.776 754.395 Q 1583.25 716.696 1573.49 703.598 C 1516.726 766.213 1484.521 751.363 1438.116 740.598 Z " fill="rgb(147,43,43)"/><path d=" M 1299.64 732.292 L 1299.64 773.19 Q 1376.166 818.299 1412.64 780.6 Q 1449.115 742.901 1434.64 719.243 C 1402.486 798.053 1320.927 783.501 1299.64 732.292 Z " fill="rgb(147,43,43)"/><path d=" M 1680.64 634.06 C 1675.198 613.905 1656.029 607.853 1626.64 620.6 Q 1600.681 631.86 1613.708 667.417 C 1609.273 633.734 1657.529 616.711 1680.64 634.06 Z " fill="rgb(147,43,43)"/><path d=" M 1133.64 707.6 L 1190.64 732.292 Q 1242.47 772.543 1289.64 767.77 C 1310.975 765.612 1292.265 748.226 1299.64 735.6 Q 1298.318 730.394 1295.641 723.019 C 1263.486 801.83 1200.337 695.664 1133.64 707.6 Z " fill="rgb(147,43,43)"/><path d=" M 1568.616 722.6 L 1556.645 746.38 Q 1631.625 769.061 1667.645 732.004 Q 1703.666 694.946 1691.64 661.6 C 1678.935 726.757 1608.045 750.542 1568.616 722.6 Z " fill="rgb(147,43,43)"/><path d=" M 1430.28 690.6 C 1427.587 669.267 1422.527 658.336 1417.64 652.6 C 1425.441 656.486 1430.504 662.604 1437.64 674.6 C 1444.777 686.596 1444.269 696.774 1443.14 727.915 C 1442.012 759.056 1413.843 799.657 1368.74 802.71 C 1323.638 805.764 1283.862 780.828 1289.64 738.01 C 1295.419 695.193 1313.56 686.555 1348.64 681.6 C 1383.721 676.646 1391.697 714.669 1368.77 733.52 C 1370.703 713.891 1378.538 693.733 1348.64 698.35 C 1318.743 702.968 1305.193 710.31 1302.64 737.95 C 1300.088 765.591 1309.816 789.063 1368.77 789.71 C 1427.725 790.357 1429.46 733.485 1430.28 727.915 C 1431.1 722.345 1432.974 711.934 1430.28 690.6 Z " fill="rgb(0,0,0)"/><path d=" M 1339.701 570.84 L 1327.6 566.09 Q 1356.545 496.886 1439.84 480.29 C 1523.136 463.695 1554.724 515.61 1561.014 523.6 C 1606.543 593.13 1550.947 632.541 1510.97 634.28 C 1470.994 636.02 1451.275 610.562 1457.37 579.69 C 1463.466 548.819 1504.64 533.791 1517.5 573.6 C 1501.545 559.743 1494.108 561.695 1487.57 562.31 C 1481.033 562.926 1468.844 567.13 1466.64 584.6 C 1464.437 602.071 1471.858 625.006 1510.97 623.6 C 1550.083 622.195 1579.475 579.91 1547.86 529.19 C 1542.4 522.26 1517.32 474.244 1440.73 493.26 Q 1364.141 512.277 1339.701 570.84 Z " fill="rgb(0,0,0)"/><path d=" M 1650.64 669.45 C 1652.206 677.897 1633.159 682.748 1625.64 678.853 C 1585.379 657.993 1619.078 622.847 1652.31 621.06 C 1698.546 618.575 1715.014 673.941 1699.64 700.6 C 1676.016 741.566 1660.134 757.079 1621.61 762.07 C 1595.573 765.444 1570.937 759.703 1547.86 746.38 L 1556.73 738.137 Q 1560.744 737.754 1568.617 741.6 C 1581.809 748.047 1598.83 753.176 1619.68 749.22 C 1640.559 745.26 1658.607 746.25 1688.64 693.163 C 1701.197 670.968 1681.799 631.917 1652.36 634.06 C 1605.309 644.03 1624.72 678.553 1650.64 669.45 Z " fill="rgb(0,0,0)"/><path d=" M 1570.64 698.378 Q 1572.736 687.89 1573.014 671.6 C 1580.257 687.586 1582.146 699.464 1578.82 707.86 C 1575.495 716.257 1567.913 741.981 1567.701 740.49 C 1565.85 743.41 1563.76 746.18 1561.47 748.76 C 1559.15 751.38 1556.62 753.81 1553.92 756.03 C 1551.06 758.38 1548.03 760.5 1544.84 762.37 C 1541.34 764.42 1537.701 766.23 1533.951 767.77 C 1532.451 768.39 1530.93 768.97 1529.4 769.51 C 1527.79 770.08 1526.16 770.61 1524.52 771.1 C 1523.28 771.47 1522.05 771.82 1520.8 772.15 C 1519.51 772.49 1518.201 772.81 1516.89 773.11 C 1512.47 774.12 1508 774.91 1503.49 775.47 C 1498.21 776.14 1492.89 776.58 1487.57 776.8 C 1485.59 776.88 1483.6 776.93 1481.62 776.96 C 1479.51 776.99 1477.4 776.99 1475.29 776.96 C 1468.57 776.88 1461.85 776.55 1455.14 775.98 C 1447.07 775.29 1439.01 774.36 1430.99 773.19 L 1424.56 772.25 L 1426.44 759.38 L 1432.87 760.32 C 1440.63 761.46 1448.43 762.36 1456.25 763.03 C 1462.64 763.57 1469.04 763.89 1475.451 763.97 C 1477.451 763.99 1479.451 763.99 1481.44 763.96 C 1483.31 763.94 1485.17 763.89 1487.04 763.81 C 1492 763.6 1496.951 763.19 1501.87 762.57 C 1505.951 762.06 1510 761.35 1514 760.43 C 1515.17 760.17 1516.34 759.88 1517.5 759.57 C 1518.6 759.29 1519.69 758.98 1520.78 758.65 C 1522.22 758.22 1523.65 757.75 1525.07 757.25 C 1526.4 756.79 1527.71 756.28 1529 755.75 C 1532.19 754.44 1535.28 752.9 1538.25 751.16 C 1540.86 749.63 1543.34 747.9 1545.67 745.98 C 1547.85 744.2 1549.88 742.24 1551.74 740.14 C 1553.58 738.07 1555.25 735.86 1556.73 733.52 C 1558.26 731.11 1568.545 708.865 1570.64 698.378 Z " fill="rgb(0,0,0)"/><path d=" M 1570.57 570.84 L 1565.64 555.292 C 1579.521 544.733 1635.935 527.274 1663.88 565.292 Q 1691.826 603.311 1678.64 634.273 L 1663.88 633.18 Q 1681.837 604.02 1650.64 573.63 Q 1619.443 543.241 1570.57 570.84 Z " fill="rgb(0,0,0)"/><path d=" M 1299.64 755.75 L 1303.84 776.96 Q 1240.154 782.618 1195.73 743.72 C 1151.307 704.823 1117.11 730.23 1116.951 728.52 C 1116.33 721.94 1121.095 665.484 1159.23 669.04 C 1197.366 672.597 1195.005 695.769 1217.64 693.6 C 1240.276 691.432 1249.982 579.48 1303.84 566.23 C 1357.698 552.981 1366.127 560.923 1374.64 564.273 C 1383.154 567.623 1386.876 579.376 1391.64 590.63 C 1385.7 583.118 1380.439 577.619 1368.77 573.6 C 1357.102 569.582 1355.283 565.185 1306.88 578.87 C 1258.478 592.555 1248.926 709.267 1217.64 704.6 C 1186.355 699.934 1183.796 680.5 1158.26 683.04 C 1132.724 685.581 1131.11 704.39 1130.64 706.6 C 1130.98 706.52 1152.686 693.416 1202.39 732.56 Q 1252.095 771.704 1299.64 755.75 Z " fill="rgb(0,0,0)"/></g></svg>