<?xml version="1.0" encoding="UTF-8" standalone="no"?>
<!-- Generator: Gravit.io -->
<svg xmlns="http://www.w3.org/2000/svg" xmlns:xlink="http://www.w3.org/1999/xlink" style="isolation:isolate" viewBox="557.79 238.17 277.685 200.747" width="277.685" height="200.747"><g><path d=" M 559.555 348.725 C 563.405 346.872 575.692 341.688 588.818 353.917 C 601.944 366.145 622.055 379.792 641.208 376.1 C 661.975 397.103 686.754 392.147 702.094 376.1 C 716.961 380.348 754.248 384.124 768.171 358.164 C 775.483 366.417 793.936 377.995 813.954 364.3 C 833.972 350.605 840.976 326.81 821.978 312.382 C 829.241 304.855 821.034 258.419 773.835 274.623 C 751.538 223.12 671 234.921 660.559 279.343 C 649.932 278.919 625.919 284.339 622.329 318.518 C 612.609 348.381 602.257 344.365 597.785 339.757 C 586.949 328.59 567.494 319.701 559.555 348.725 Z " fill="rgb(255,0,55)"/><path d=" M 720.973 286.62 L 724.749 305.929 Q 747.017 319.474 764.232 301.681 Q 781.448 283.888 769.587 286.62 C 751.18 313.245 729.941 308.053 720.973 286.62 Z " fill="rgb(147,43,43)"/><path d=" M 709.398 362.565 L 705.292 372.259 Q 743.468 386.871 760.684 369.078 Q 777.899 351.285 773.292 345.102 C 746.501 374.656 731.3 367.647 709.398 362.565 Z " fill="rgb(147,43,43)"/><path d=" M 644.04 358.646 L 644.04 377.949 Q 680.159 399.24 697.374 381.446 Q 714.589 363.653 707.758 352.486 C 692.581 389.683 654.087 382.815 644.04 358.646 Z " fill="rgb(147,43,43)"/><path d=" M 823.865 312.282 C 821.297 302.769 812.249 299.913 798.378 305.929 Q 786.126 311.243 792.274 328.026 C 790.181 312.128 812.957 304.093 823.865 312.282 Z " fill="rgb(147,43,43)"/><path d=" M 565.691 346.991 L 592.594 358.646 Q 617.056 377.643 639.32 375.391 C 649.389 374.372 640.559 366.166 644.04 360.207 Q 643.416 357.75 642.152 354.269 C 626.976 391.466 597.17 341.358 565.691 346.991 Z " fill="rgb(147,43,43)"/><path d=" M 770.992 354.071 L 765.342 365.295 Q 800.731 376 817.732 358.509 Q 834.733 341.019 829.057 325.28 C 823.061 356.033 789.602 367.259 770.992 354.071 Z " fill="rgb(147,43,43)"/><path d=" M 705.7 338.968 C 704.429 328.899 702.04 323.739 699.734 321.032 C 703.416 322.866 705.805 325.754 709.174 331.416 C 712.542 337.078 712.302 341.882 711.769 356.58 C 711.237 371.278 697.942 390.44 676.654 391.882 C 655.366 393.323 636.593 381.554 639.32 361.344 C 642.047 341.135 650.609 337.058 667.167 334.72 C 683.725 332.382 687.489 350.328 676.668 359.225 C 677.58 349.961 681.278 340.446 667.167 342.626 C 653.056 344.805 646.66 348.27 645.456 361.316 C 644.251 374.362 648.843 385.441 676.668 385.746 C 704.493 386.051 705.313 359.209 705.7 356.58 C 706.087 353.951 706.971 349.037 705.7 338.968 Z " fill="rgb(0,0,0)"/><path d=" M 662.948 282.443 L 657.236 280.201 Q 670.898 247.538 710.212 239.705 C 749.526 231.872 764.435 256.375 767.404 260.146 C 788.893 292.963 762.652 311.564 743.784 312.386 C 724.916 313.207 715.609 301.191 718.486 286.62 C 721.363 272.049 740.796 264.956 746.866 283.746 C 739.336 277.205 735.825 278.126 732.74 278.417 C 729.654 278.708 723.901 280.691 722.861 288.937 C 721.821 297.183 725.324 308.008 743.784 307.345 C 762.245 306.681 776.117 286.724 761.196 262.785 C 758.618 259.514 746.781 236.851 710.632 245.827 Q 674.483 254.802 662.948 282.443 Z " fill="rgb(0,0,0)"/><path d=" M 809.706 328.985 C 810.445 332.972 801.455 335.262 797.906 333.423 C 778.904 323.577 794.809 306.989 810.494 306.146 C 832.317 304.973 840.089 331.105 832.833 343.688 C 821.683 363.023 814.187 370.344 796.004 372.7 C 783.715 374.293 772.087 371.583 761.196 365.295 L 765.382 361.404 Q 767.277 361.223 770.992 363.039 C 777.218 366.082 785.252 368.502 795.093 366.635 C 804.948 364.766 813.466 365.233 827.641 340.177 C 833.568 329.702 824.412 311.27 810.518 312.282 C 788.31 316.987 797.472 333.281 809.706 328.985 Z " fill="rgb(0,0,0)"/><path d=" M 771.947 342.638 Q 772.936 337.689 773.068 330 C 776.486 337.545 777.378 343.151 775.808 347.114 C 774.239 351.077 770.66 363.218 770.56 362.515 C 769.686 363.893 768.7 365.201 767.619 366.418 C 766.524 367.655 765.33 368.802 764.056 369.85 C 762.706 370.959 761.276 371.959 759.77 372.842 C 758.118 373.809 756.4 374.664 754.63 375.391 C 753.922 375.683 753.205 375.957 752.483 376.212 C 751.723 376.481 750.953 376.731 750.179 376.962 C 749.594 377.137 749.014 377.302 748.424 377.458 C 747.815 377.618 747.197 377.769 746.578 377.911 C 744.492 378.388 742.382 378.761 740.254 379.025 C 737.762 379.341 735.251 379.549 732.74 379.653 C 731.805 379.69 730.866 379.714 729.931 379.728 C 728.935 379.742 727.94 379.742 726.944 379.728 C 723.772 379.69 720.6 379.535 717.433 379.266 C 713.624 378.94 709.82 378.501 706.035 377.949 L 703 377.505 L 703.887 371.431 L 706.922 371.874 C 710.585 372.412 714.266 372.837 717.957 373.153 C 720.973 373.408 723.994 373.559 727.019 373.597 C 727.963 373.607 728.907 373.607 729.846 373.592 C 730.729 373.583 731.607 373.559 732.49 373.522 C 734.831 373.422 737.167 373.229 739.489 372.936 C 741.415 372.696 743.326 372.36 745.214 371.926 C 745.766 371.804 746.319 371.667 746.866 371.52 C 747.385 371.388 747.9 371.242 748.414 371.086 C 749.094 370.883 749.769 370.661 750.439 370.425 C 751.067 370.208 751.685 369.968 752.294 369.717 C 753.8 369.099 755.258 368.372 756.66 367.551 C 757.892 366.829 759.062 366.012 760.162 365.106 C 761.191 364.266 762.149 363.341 763.027 362.35 C 763.895 361.373 764.683 360.33 765.382 359.225 C 766.104 358.088 770.958 347.588 771.947 342.638 Z " fill="rgb(0,0,0)"/><path d=" M 771.914 282.443 L 769.587 275.105 C 776.139 270.121 802.765 261.88 815.955 279.824 Q 829.145 297.769 822.921 312.382 L 815.955 311.866 Q 824.43 298.103 809.706 283.76 Q 794.981 269.416 771.914 282.443 Z " fill="rgb(0,0,0)"/><path d=" M 644.04 369.717 L 646.022 379.728 Q 615.963 382.399 594.996 364.039 C 574.029 345.68 557.889 357.672 557.813 356.865 C 557.521 353.76 559.769 327.113 577.769 328.792 C 595.768 330.47 594.654 341.407 605.337 340.384 C 616.021 339.36 620.602 286.52 646.022 280.267 C 671.442 274.014 675.42 277.762 679.439 279.343 C 683.457 280.924 685.214 286.472 687.462 291.784 C 684.659 288.238 682.175 285.642 676.668 283.746 C 671.161 281.849 670.302 279.774 647.457 286.233 C 624.612 292.692 620.104 347.778 605.337 345.575 C 590.571 343.373 589.363 334.2 577.311 335.399 C 565.258 336.599 564.496 345.476 564.275 346.519 C 564.435 346.482 574.68 340.297 598.139 358.772 Q 621.599 377.247 644.04 369.717 Z " fill="rgb(0,0,0)"/><path d=" M 628.446 416.677 L 628.446 416.677 Q 628.294 416.035 628.03 414.94 L 628.03 414.94 L 628.03 414.94 Q 627.766 413.845 627.464 412.524 L 627.464 412.524 L 627.464 412.524 Q 627.162 411.202 626.841 409.767 L 626.841 409.767 L 626.841 409.767 Q 626.52 408.333 626.237 407.068 L 626.237 407.068 L 626.237 407.068 Q 625.953 405.803 625.708 404.802 L 625.708 404.802 L 625.708 404.802 Q 625.463 403.801 625.349 403.311 L 625.349 403.311 L 625.349 403.311 Q 624.103 403.424 623.329 403.443 L 623.329 403.443 L 623.329 403.443 Q 622.555 403.462 622.064 403.462 L 622.064 403.462 L 622.064 403.462 Q 621.573 403.462 621.271 403.462 L 621.271 403.462 L 621.271 403.462 Q 620.969 403.462 620.705 403.499 L 620.705 403.499 L 620.705 403.499 Q 619.799 406.52 619.044 409.579 L 619.044 409.579 L 619.044 409.579 Q 618.288 412.637 617.647 415.469 L 617.647 415.469 L 617.647 415.469 Q 617.005 418.301 616.533 420.812 L 616.533 420.812 L 616.533 420.812 Q 616.061 423.323 615.721 425.248 L 615.721 425.248 L 615.721 425.248 Q 615.381 427.174 615.192 428.382 L 615.192 428.382 L 615.192 428.382 Q 615.003 429.591 614.928 429.855 L 614.928 429.855 L 614.928 429.855 Q 614.966 429.893 615.003 429.893 L 615.003 429.893 L 615.003 429.893 Q 617.571 429.855 618.779 429.93 L 618.779 429.93 L 618.779 429.93 Q 619.988 430.006 620.29 429.93 L 620.29 429.93 L 620.29 429.93 Q 620.327 429.93 620.346 429.912 L 620.346 429.912 L 620.346 429.912 Q 620.365 429.893 620.403 429.893 L 620.403 429.893 L 620.403 429.893 Q 620.743 429.251 620.932 428.42 L 620.932 428.42 L 620.932 428.42 Q 621.12 427.589 621.29 426.702 L 621.29 426.702 L 621.29 426.702 Q 621.46 425.815 621.63 425.003 L 621.63 425.003 L 621.63 425.003 Q 621.8 424.191 622.064 423.587 L 622.064 423.587 L 622.064 423.587 Q 622.48 423.587 622.725 423.568 L 622.725 423.568 L 622.725 423.568 Q 622.97 423.549 623.178 423.549 L 623.178 423.549 L 623.178 423.549 Q 623.386 423.549 623.65 423.549 L 623.65 423.549 L 623.65 423.549 Q 623.914 423.549 624.405 423.625 L 624.405 423.625 L 624.405 423.625 Q 624.67 424.191 624.896 424.984 L 624.896 424.984 L 624.896 424.984 Q 625.123 425.777 625.33 426.645 L 625.33 426.645 L 625.33 426.645 Q 625.538 427.514 625.746 428.345 L 625.746 428.345 L 625.746 428.345 Q 625.953 429.175 626.18 429.779 L 626.18 429.779 L 626.218 429.779 L 626.218 429.779 Q 627.426 430.044 628.785 430.1 L 628.785 430.1 L 628.785 430.1 Q 630.145 430.157 631.277 429.93 L 631.277 429.93 L 631.277 429.893 L 628.446 416.677 L 628.446 416.677 Z  M 624.594 419.132 L 624.594 419.132 Q 623.877 419.132 623.159 419.15 L 623.159 419.15 L 623.159 419.15 Q 622.442 419.169 621.8 419.132 L 621.8 419.132 L 621.8 419.132 Q 622.064 417.206 622.272 415.544 L 622.272 415.544 L 622.272 415.544 Q 622.48 413.883 622.65 412.788 L 622.65 412.788 L 622.65 412.788 Q 622.819 411.693 623.027 411.334 L 623.027 411.334 L 623.027 411.334 Q 623.235 410.976 623.442 411.618 L 623.442 411.618 L 623.442 411.618 Q 623.65 412.259 623.933 414.072 L 623.933 414.072 L 623.933 414.072 Q 624.217 415.884 624.594 419.132 L 624.594 419.132 L 624.594 419.132 Z  M 642.19 416.375 L 642.19 416.375 Q 642.869 414.789 643.776 413.203 L 643.776 413.203 L 643.776 413.203 Q 644.682 411.618 645.607 410.032 L 645.607 410.032 L 645.607 410.032 Q 646.532 408.446 647.344 406.86 L 647.344 406.86 L 647.344 406.86 Q 648.156 405.274 648.609 403.688 L 648.609 403.688 L 648.609 403.688 Q 647.4 403.499 646.041 403.575 L 646.041 403.575 L 646.041 403.575 Q 644.682 403.65 643.473 403.575 L 643.473 403.575 L 643.473 403.575 Q 642.681 404.708 642.057 405.84 L 642.057 405.84 L 642.057 405.84 Q 641.434 406.973 640.849 408.106 L 640.849 408.106 L 640.849 408.106 Q 640.264 409.239 639.622 410.334 L 639.622 410.334 L 639.622 410.334 Q 638.98 411.429 638.187 412.448 L 638.187 412.448 L 638.187 412.448 Q 638.112 412.524 638.055 412.618 L 638.055 412.618 L 638.055 412.618 Q 637.998 412.713 637.998 412.675 L 637.998 412.675 L 637.998 412.675 Q 637.923 410.523 637.961 408.144 L 637.961 408.144 L 637.961 408.144 Q 637.998 405.765 637.923 403.613 L 637.923 403.613 L 637.923 403.613 Q 636.715 403.613 635.412 403.556 L 635.412 403.556 L 635.412 403.556 Q 634.109 403.499 632.863 403.537 L 632.863 403.537 L 632.863 403.537 Q 632.901 410.145 632.693 416.696 L 632.693 416.696 L 632.693 416.696 Q 632.486 423.247 632.788 429.742 L 632.788 429.742 L 632.788 429.742 Q 633.279 429.855 634.015 429.93 L 634.015 429.93 L 634.015 429.93 Q 634.751 430.006 635.544 430.006 L 635.544 430.006 L 635.544 430.006 Q 636.337 430.006 637.054 429.949 L 637.054 429.949 L 637.054 429.949 Q 637.772 429.893 638.301 429.742 L 638.301 429.742 L 638.301 429.742 Q 638.301 428.684 638.282 427.438 L 638.282 427.438 L 638.282 427.438 Q 638.263 426.192 638.225 424.909 L 638.225 424.909 L 638.225 424.909 Q 638.187 423.625 638.168 422.36 L 638.168 422.36 L 638.168 422.36 Q 638.149 421.095 638.187 420 L 638.187 420 L 638.187 420 Q 638.791 421.057 639.396 422.379 L 639.396 422.379 L 639.396 422.379 Q 640 423.7 640.623 425.06 L 640.623 425.06 L 640.623 425.06 Q 641.246 426.419 641.925 427.684 L 641.925 427.684 L 641.925 427.684 Q 642.605 428.949 643.398 429.855 L 643.398 429.855 L 643.398 429.855 Q 644.606 429.893 646.022 429.968 L 646.022 429.968 L 646.022 429.968 Q 647.438 430.044 648.646 429.779 L 648.646 429.779 L 642.19 416.375 L 642.19 416.375 Z  M 662.164 416.677 L 662.164 416.677 Q 662.013 416.035 661.749 414.94 L 661.749 414.94 L 661.749 414.94 Q 661.484 413.845 661.182 412.524 L 661.182 412.524 L 661.182 412.524 Q 660.88 411.202 660.559 409.767 L 660.559 409.767 L 660.559 409.767 Q 660.238 408.333 659.955 407.068 L 659.955 407.068 L 659.955 407.068 Q 659.672 405.803 659.426 404.802 L 659.426 404.802 L 659.426 404.802 Q 659.181 403.801 659.068 403.311 L 659.068 403.311 L 659.068 403.311 Q 657.822 403.424 657.048 403.443 L 657.048 403.443 L 657.048 403.443 Q 656.274 403.462 655.783 403.462 L 655.783 403.462 L 655.783 403.462 Q 655.292 403.462 654.99 403.462 L 654.99 403.462 L 654.99 403.462 Q 654.688 403.462 654.423 403.499 L 654.423 403.499 L 654.423 403.499 Q 653.517 406.52 652.762 409.579 L 652.762 409.579 L 652.762 409.579 Q 652.007 412.637 651.365 415.469 L 651.365 415.469 L 651.365 415.469 Q 650.723 418.301 650.251 420.812 L 650.251 420.812 L 650.251 420.812 Q 649.779 423.323 649.439 425.248 L 649.439 425.248 L 649.439 425.248 Q 649.099 427.174 648.911 428.382 L 648.911 428.382 L 648.911 428.382 Q 648.722 429.591 648.646 429.855 L 648.646 429.855 L 648.646 429.855 Q 648.684 429.893 648.722 429.893 L 648.722 429.893 L 648.722 429.893 Q 651.289 429.855 652.498 429.93 L 652.498 429.93 L 652.498 429.93 Q 653.706 430.006 654.008 429.93 L 654.008 429.93 L 654.008 429.93 Q 654.046 429.93 654.065 429.912 L 654.065 429.912 L 654.065 429.912 Q 654.084 429.893 654.121 429.893 L 654.121 429.893 L 654.121 429.893 Q 654.461 429.251 654.65 428.42 L 654.65 428.42 L 654.65 428.42 Q 654.839 427.589 655.009 426.702 L 655.009 426.702 L 655.009 426.702 Q 655.179 425.815 655.349 425.003 L 655.349 425.003 L 655.349 425.003 Q 655.518 424.191 655.783 423.587 L 655.783 423.587 L 655.783 423.587 Q 656.198 423.587 656.444 423.568 L 656.444 423.568 L 656.444 423.568 Q 656.689 423.549 656.897 423.549 L 656.897 423.549 L 656.897 423.549 Q 657.104 423.549 657.369 423.549 L 657.369 423.549 L 657.369 423.549 Q 657.633 423.549 658.124 423.625 L 658.124 423.625 L 658.124 423.625 Q 658.388 424.191 658.615 424.984 L 658.615 424.984 L 658.615 424.984 Q 658.841 425.777 659.049 426.645 L 659.049 426.645 L 659.049 426.645 Q 659.257 427.514 659.464 428.345 L 659.464 428.345 L 659.464 428.345 Q 659.672 429.175 659.898 429.779 L 659.898 429.779 L 659.936 429.779 L 659.936 429.779 Q 661.145 430.044 662.504 430.1 L 662.504 430.1 L 662.504 430.1 Q 663.863 430.157 664.996 429.93 L 664.996 429.93 L 664.996 429.893 L 662.164 416.677 L 662.164 416.677 Z  M 658.313 419.132 L 658.313 419.132 Q 657.595 419.132 656.878 419.15 L 656.878 419.15 L 656.878 419.15 Q 656.16 419.169 655.518 419.132 L 655.518 419.132 L 655.518 419.132 Q 655.783 417.206 655.99 415.544 L 655.99 415.544 L 655.99 415.544 Q 656.198 413.883 656.368 412.788 L 656.368 412.788 L 656.368 412.788 Q 656.538 411.693 656.746 411.334 L 656.746 411.334 L 656.746 411.334 Q 656.953 410.976 657.161 411.618 L 657.161 411.618 L 657.161 411.618 Q 657.369 412.259 657.652 414.072 L 657.652 414.072 L 657.652 414.072 Q 657.935 415.884 658.313 419.132 L 658.313 419.132 L 658.313 419.132 Z  M 681.194 403.688 L 681.194 403.688 Q 677.305 403.273 673.208 403.292 L 673.208 403.292 L 673.208 403.292 Q 669.112 403.311 665.26 403.348 L 665.26 403.348 L 665.26 403.348 Q 665.26 403.386 665.279 403.386 L 665.279 403.386 L 665.279 403.386 Q 665.298 403.386 665.298 403.424 L 665.298 403.424 L 665.298 403.424 Q 665.222 404.33 665.222 405.312 L 665.222 405.312 L 665.222 405.312 Q 665.222 406.294 665.241 407.143 L 665.241 407.143 L 665.241 407.143 Q 665.26 407.993 665.317 408.597 L 665.317 408.597 L 665.317 408.597 Q 665.373 409.201 665.449 409.352 L 665.449 409.352 L 665.449 409.352 Q 665.676 409.428 666.242 409.428 L 666.242 409.428 L 666.242 409.428 Q 666.808 409.428 667.488 409.446 L 667.488 409.446 L 667.488 409.446 Q 668.168 409.465 668.847 409.522 L 668.847 409.522 L 668.847 409.522 Q 669.527 409.579 669.98 409.805 L 669.98 409.805 L 670.018 409.843 L 670.018 409.843 Q 670.244 415.129 670.301 418.867 L 670.301 418.867 L 670.301 418.867 Q 670.358 422.605 670.339 425.003 L 670.339 425.003 L 670.339 425.003 Q 670.32 427.401 670.282 428.609 L 670.282 428.609 L 670.282 428.609 Q 670.244 429.817 670.282 429.968 L 670.282 429.968 L 670.282 429.968 Q 670.962 429.855 671.755 429.855 L 671.755 429.855 L 671.755 429.855 Q 672.548 429.855 673.359 429.855 L 673.359 429.855 L 673.359 429.855 Q 674.171 429.855 674.983 429.836 L 674.983 429.836 L 674.983 429.836 Q 675.795 429.817 676.475 429.704 L 676.475 429.704 L 676.475 429.666 L 676.475 429.628 L 676.475 429.628 Q 676.399 425.513 676.361 422.473 L 676.361 422.473 L 676.361 422.473 Q 676.323 419.434 676.286 417.262 L 676.286 417.262 L 676.286 417.262 Q 676.248 415.091 676.229 413.713 L 676.229 413.713 L 676.229 413.713 Q 676.21 412.335 676.21 411.485 L 676.21 411.485 L 676.21 411.485 Q 676.21 410.636 676.229 410.239 L 676.229 410.239 L 676.229 410.239 Q 676.248 409.843 676.286 409.654 L 676.286 409.654 L 676.286 409.654 Q 676.286 409.616 676.305 409.597 L 676.305 409.597 L 676.305 409.597 Q 676.323 409.579 676.323 409.541 L 676.323 409.541 L 676.361 409.541 L 676.437 409.541 L 676.437 409.541 Q 678.211 409.465 679.269 409.428 L 679.269 409.428 L 679.269 409.428 Q 680.326 409.39 681.043 409.541 L 681.043 409.541 L 681.043 409.541 Q 681.232 408.181 681.251 406.558 L 681.251 406.558 L 681.251 406.558 Q 681.27 404.934 681.194 403.688 L 681.194 403.688 L 681.194 403.688 Z  M 699.092 412.033 L 699.092 412.033 Q 699.621 409.201 698.639 407.351 L 698.639 407.351 L 698.639 407.351 Q 697.657 405.501 695.845 404.557 L 695.845 404.557 L 695.845 404.557 Q 694.939 404.141 693.862 403.877 L 693.862 403.877 L 693.862 403.877 Q 692.786 403.613 691.672 403.556 L 691.672 403.556 L 691.672 403.556 Q 690.559 403.499 689.463 403.632 L 689.463 403.632 L 689.463 403.632 Q 688.368 403.764 687.462 404.141 L 687.462 404.141 L 687.462 404.141 Q 685.65 404.896 684.385 406.445 L 684.385 406.445 L 684.385 406.445 Q 683.12 407.993 682.667 409.881 L 682.667 409.881 L 682.667 409.881 Q 682.214 411.769 682.724 413.77 L 682.724 413.77 L 682.724 413.77 Q 683.233 415.771 684.97 417.432 L 684.97 417.432 L 684.97 417.432 Q 685.499 417.885 686.141 418.225 L 686.141 418.225 L 686.141 418.225 Q 686.783 418.565 687.538 418.716 L 687.538 418.716 L 687.538 418.716 Q 688.331 418.867 689.237 419.037 L 689.237 419.037 L 689.237 419.037 Q 690.143 419.207 690.917 419.547 L 690.917 419.547 L 690.917 419.547 Q 691.691 419.887 692.258 420.434 L 692.258 420.434 L 692.258 420.434 Q 692.824 420.982 692.937 421.888 L 692.937 421.888 L 692.937 421.888 Q 693.164 423.209 692.428 423.851 L 692.428 423.851 L 692.428 423.851 Q 691.691 424.493 690.691 424.512 L 690.691 424.512 L 690.691 424.512 Q 689.69 424.531 688.803 423.927 L 688.803 423.927 L 688.803 423.927 Q 687.915 423.323 687.84 422.114 L 687.84 422.114 L 687.84 422.114 Q 686.556 422.152 684.97 422.058 L 684.97 422.058 L 684.97 422.058 Q 683.384 421.963 682.063 422.152 L 682.063 422.152 L 682.063 422.265 L 682.063 422.379 L 682.063 422.379 Q 681.95 424.191 682.705 425.607 L 682.705 425.607 L 682.705 425.607 Q 683.46 427.023 684.744 428.005 L 684.744 428.005 L 684.744 428.005 Q 686.027 428.987 687.67 429.534 L 687.67 429.534 L 687.67 429.534 Q 689.312 430.082 690.974 430.119 L 690.974 430.119 L 690.974 430.119 Q 692.144 430.157 693.258 429.912 L 693.258 429.912 L 693.258 429.912 Q 694.372 429.666 695.335 429.138 L 695.335 429.138 L 695.335 429.138 Q 696.298 428.609 697.053 427.778 L 697.053 427.778 L 697.053 427.778 Q 697.808 426.948 698.261 425.777 L 698.261 425.777 L 698.261 425.777 Q 698.714 424.795 698.922 423.719 L 698.922 423.719 L 698.922 423.719 Q 699.13 422.643 699.073 421.586 L 699.073 421.586 L 699.073 421.586 Q 699.016 420.529 698.677 419.528 L 698.677 419.528 L 698.677 419.528 Q 698.337 418.527 697.657 417.659 L 697.657 417.659 L 697.657 417.659 Q 696.562 416.035 694.844 414.978 L 694.844 414.978 L 694.844 414.978 Q 693.126 413.921 691.125 413.694 L 691.125 413.694 L 691.125 413.694 Q 690.332 413.581 689.652 413.279 L 689.652 413.279 L 689.652 413.279 Q 688.973 412.977 688.671 412.071 L 688.671 412.071 L 688.671 412.071 Q 688.633 411.806 688.614 411.561 L 688.614 411.561 L 688.614 411.561 Q 688.595 411.315 688.671 411.051 L 688.671 411.051 L 688.671 411.051 Q 688.822 409.994 689.671 409.616 L 689.671 409.616 L 689.671 409.616 Q 690.521 409.239 691.427 409.428 L 691.427 409.428 L 691.427 409.428 Q 692.333 409.616 692.975 410.296 L 692.975 410.296 L 692.975 410.296 Q 693.617 410.976 693.39 411.995 L 693.39 411.995 L 693.39 411.995 Q 694.712 412.373 696.222 412.316 L 696.222 412.316 L 696.222 412.316 Q 697.733 412.259 699.054 412.033 L 699.054 412.033 L 699.092 412.033 L 699.092 412.033 Z  M 717.631 404.67 L 717.631 404.67 Q 717.178 404.406 716.461 404.33 L 716.461 404.33 L 716.461 404.33 Q 715.744 404.255 714.951 404.292 L 714.951 404.292 L 714.951 404.292 Q 714.158 404.33 713.384 404.425 L 713.384 404.425 L 713.384 404.425 Q 712.61 404.519 712.119 404.557 L 712.119 404.557 L 712.119 404.557 Q 712.005 408.937 711.987 413.619 L 711.987 413.619 L 711.987 413.619 Q 711.968 418.301 711.779 422.832 L 711.779 422.832 L 711.779 422.832 Q 711.59 423.7 710.948 424.191 L 710.948 424.191 L 710.948 424.191 Q 710.306 424.682 709.551 424.72 L 709.551 424.72 L 709.551 424.72 Q 708.796 424.758 708.097 424.342 L 708.097 424.342 L 708.097 424.342 Q 707.399 423.927 707.135 423.021 L 707.135 423.021 L 707.135 423.021 Q 706.379 413.619 706.795 404.481 L 706.795 404.481 L 706.795 404.443 L 706.795 404.443 Q 706.228 404.292 705.549 404.236 L 705.549 404.236 L 705.549 404.236 Q 704.869 404.179 704.152 404.179 L 704.152 404.179 L 704.152 404.179 Q 703.434 404.179 702.736 404.217 L 702.736 404.217 L 702.736 404.217 Q 702.037 404.255 701.471 404.255 L 701.471 404.255 L 701.433 404.255 L 701.471 404.292 L 701.471 404.292 Q 701.546 409.276 701.433 414.336 L 701.433 414.336 L 701.433 414.336 Q 701.32 419.396 701.32 424.38 L 701.32 424.38 L 701.32 424.38 Q 701.395 426.117 702.32 427.344 L 702.32 427.344 L 702.32 427.344 Q 703.245 428.571 704.624 429.307 L 704.624 429.307 L 704.624 429.307 Q 706.002 430.044 707.701 430.327 L 707.701 430.327 L 707.701 430.327 Q 709.4 430.61 710.986 430.459 L 710.986 430.459 L 710.986 430.459 Q 713.705 430.195 715.29 428.458 L 715.29 428.458 L 715.29 428.458 Q 716.876 426.721 717.178 424.229 L 717.178 424.229 L 717.178 424.229 Q 717.707 419.358 717.782 414.431 L 717.782 414.431 L 717.782 414.431 Q 717.858 409.503 717.631 404.67 L 717.631 404.67 L 717.631 404.67 Z  M 730.016 416.375 L 730.016 416.375 Q 730.696 414.789 731.602 413.203 L 731.602 413.203 L 731.602 413.203 Q 732.508 411.618 733.433 410.032 L 733.433 410.032 L 733.433 410.032 Q 734.359 408.446 735.17 406.86 L 735.17 406.86 L 735.17 406.86 Q 735.982 405.274 736.435 403.688 L 736.435 403.688 L 736.435 403.688 Q 735.227 403.499 733.868 403.575 L 733.868 403.575 L 733.868 403.575 Q 732.508 403.65 731.3 403.575 L 731.3 403.575 L 731.3 403.575 Q 730.507 404.708 729.884 405.84 L 729.884 405.84 L 729.884 405.84 Q 729.261 406.973 728.676 408.106 L 728.676 408.106 L 728.676 408.106 Q 728.091 409.239 727.449 410.334 L 727.449 410.334 L 727.449 410.334 Q 726.807 411.429 726.014 412.448 L 726.014 412.448 L 726.014 412.448 Q 725.938 412.524 725.882 412.618 L 725.882 412.618 L 725.882 412.618 Q 725.825 412.713 725.825 412.675 L 725.825 412.675 L 725.825 412.675 Q 725.75 410.523 725.787 408.144 L 725.787 408.144 L 725.787 408.144 Q 725.825 405.765 725.75 403.613 L 725.75 403.613 L 725.75 403.613 Q 724.541 403.613 723.239 403.556 L 723.239 403.556 L 723.239 403.556 Q 721.936 403.499 720.69 403.537 L 720.69 403.537 L 720.69 403.537 Q 720.728 410.145 720.52 416.696 L 720.52 416.696 L 720.52 416.696 Q 720.312 423.247 720.614 429.742 L 720.614 429.742 L 720.614 429.742 Q 721.105 429.855 721.842 429.93 L 721.842 429.93 L 721.842 429.93 Q 722.578 430.006 723.371 430.006 L 723.371 430.006 L 723.371 430.006 Q 724.164 430.006 724.881 429.949 L 724.881 429.949 L 724.881 429.949 Q 725.599 429.893 726.127 429.742 L 726.127 429.742 L 726.127 429.742 Q 726.127 428.684 726.108 427.438 L 726.108 427.438 L 726.108 427.438 Q 726.089 426.192 726.052 424.909 L 726.052 424.909 L 726.052 424.909 Q 726.014 423.625 725.995 422.36 L 725.995 422.36 L 725.995 422.36 Q 725.976 421.095 726.014 420 L 726.014 420 L 726.014 420 Q 726.618 421.057 727.222 422.379 L 727.222 422.379 L 727.222 422.379 Q 727.826 423.7 728.449 425.06 L 728.449 425.06 L 728.449 425.06 Q 729.072 426.419 729.752 427.684 L 729.752 427.684 L 729.752 427.684 Q 730.432 428.949 731.225 429.855 L 731.225 429.855 L 731.225 429.855 Q 732.433 429.893 733.849 429.968 L 733.849 429.968 L 733.849 429.968 Q 735.265 430.044 736.473 429.779 L 736.473 429.779 L 730.016 416.375 L 730.016 416.375 Z  M 743.798 403.386 L 743.798 403.386 Q 742.099 403.424 741.212 403.367 L 741.212 403.367 L 741.212 403.367 Q 740.324 403.311 739.645 403.273 L 739.645 403.273 L 739.645 403.273 Q 739.38 403.273 738.833 403.216 L 738.833 403.216 L 738.833 403.216 Q 738.285 403.16 738.097 403.197 L 738.097 403.197 L 738.097 403.273 L 738.097 403.273 Q 737.757 406.445 737.776 409.748 L 737.776 409.748 L 737.776 409.748 Q 737.795 413.052 737.889 416.432 L 737.889 416.432 L 737.889 416.432 Q 737.983 419.811 738.021 423.247 L 738.021 423.247 L 738.021 423.247 Q 738.059 426.683 737.795 430.082 L 737.795 430.082 L 737.795 430.082 Q 738.172 429.968 739.192 430.025 L 739.192 430.025 L 739.192 430.025 Q 740.211 430.082 741.325 430.119 L 741.325 430.119 L 741.325 430.119 Q 742.439 430.157 743.402 430.1 L 743.402 430.1 L 743.402 430.1 Q 744.365 430.044 744.667 429.742 L 744.667 429.742 L 744.667 429.742 Q 744.478 426.532 744.44 423.247 L 744.44 423.247 L 744.44 423.247 Q 744.402 419.962 744.459 416.658 L 744.459 416.658 L 744.459 416.658 Q 744.516 413.354 744.61 410.069 L 744.61 410.069 L 744.61 410.069 Q 744.704 406.784 744.704 403.537 L 744.704 403.537 L 744.704 403.386 L 743.798 403.386 L 743.798 403.386 Z " fill-rule="evenodd" fill="rgb(255,255,255)"/><path d=" M 768.684 403.122 L 768.684 403.386 L 768.684 403.386 Q 768.533 407.879 768.59 412.335 L 768.59 412.335 L 768.59 412.335 Q 768.646 416.79 768.722 421.019 L 768.722 421.019 L 768.722 421.019 Q 768.684 421.586 768.533 422.096 L 768.533 422.096 L 768.533 422.096 Q 768.382 422.605 768.099 423.002 L 768.099 423.002 L 768.099 423.002 Q 767.816 423.398 767.4 423.587 L 767.4 423.587 L 767.4 423.587 Q 766.985 423.776 766.419 423.663 L 766.419 423.663 L 766.419 423.663 Q 765.739 423.625 765.324 423.172 L 765.324 423.172 L 765.324 423.172 Q 764.908 422.719 764.644 422.058 L 764.644 422.058 L 764.644 422.058 Q 764.38 421.397 764.285 420.661 L 764.285 420.661 L 764.285 420.661 Q 764.191 419.924 764.153 419.358 L 764.153 419.358 L 764.153 419.169 L 764.153 419.132 L 764.153 419.132 Q 763.473 419.018 762.662 418.943 L 762.662 418.943 L 762.662 418.943 Q 761.85 418.867 761.057 418.867 L 761.057 418.867 L 761.057 418.867 Q 760.264 418.867 759.528 418.905 L 759.528 418.905 L 759.528 418.905 Q 758.791 418.943 758.3 419.056 L 758.3 419.056 L 758.3 419.056 Q 758.225 420.491 758.357 422.209 L 758.357 422.209 L 758.357 422.209 Q 758.489 423.927 758.98 425.494 L 758.98 425.494 L 758.98 425.494 Q 759.471 427.061 760.415 428.269 L 760.415 428.269 L 760.415 428.269 Q 761.359 429.477 762.907 429.93 L 762.907 429.93 L 762.907 429.93 Q 764.606 430.308 766.494 430.214 L 766.494 430.214 L 766.494 430.214 Q 768.382 430.119 769.968 429.326 L 769.968 429.326 L 769.968 429.326 Q 771.705 428.684 772.592 427.325 L 772.592 427.325 L 772.592 427.325 Q 773.479 425.966 773.838 424.304 L 773.838 424.304 L 773.838 424.304 Q 774.197 422.643 774.235 420.85 L 774.235 420.85 L 774.235 420.85 Q 774.272 419.056 774.348 417.508 L 774.348 417.508 L 774.348 417.508 Q 774.423 413.845 774.272 410.22 L 774.272 410.22 L 774.272 410.22 Q 774.121 406.596 774.197 403.046 L 774.197 403.046 L 768.684 403.122 L 768.684 403.122 Z  M 793.114 412.033 L 793.114 412.033 Q 793.643 409.201 792.661 407.351 L 792.661 407.351 L 792.661 407.351 Q 791.679 405.501 789.867 404.557 L 789.867 404.557 L 789.867 404.557 Q 788.96 404.141 787.884 403.877 L 787.884 403.877 L 787.884 403.877 Q 786.808 403.613 785.694 403.556 L 785.694 403.556 L 785.694 403.556 Q 784.58 403.499 783.485 403.632 L 783.485 403.632 L 783.485 403.632 Q 782.39 403.764 781.484 404.141 L 781.484 404.141 L 781.484 404.141 Q 779.672 404.896 778.407 406.445 L 778.407 406.445 L 778.407 406.445 Q 777.142 407.993 776.689 409.881 L 776.689 409.881 L 776.689 409.881 Q 776.236 411.769 776.746 413.77 L 776.746 413.77 L 776.746 413.77 Q 777.255 415.771 778.992 417.432 L 778.992 417.432 L 778.992 417.432 Q 779.521 417.885 780.163 418.225 L 780.163 418.225 L 780.163 418.225 Q 780.805 418.565 781.56 418.716 L 781.56 418.716 L 781.56 418.716 Q 782.353 418.867 783.259 419.037 L 783.259 419.037 L 783.259 419.037 Q 784.165 419.207 784.939 419.547 L 784.939 419.547 L 784.939 419.547 Q 785.713 419.887 786.28 420.434 L 786.28 420.434 L 786.28 420.434 Q 786.846 420.982 786.959 421.888 L 786.959 421.888 L 786.959 421.888 Q 787.186 423.209 786.45 423.851 L 786.45 423.851 L 786.45 423.851 Q 785.713 424.493 784.713 424.512 L 784.713 424.512 L 784.713 424.512 Q 783.712 424.531 782.825 423.927 L 782.825 423.927 L 782.825 423.927 Q 781.937 423.323 781.862 422.114 L 781.862 422.114 L 781.862 422.114 Q 780.578 422.152 778.992 422.058 L 778.992 422.058 L 778.992 422.058 Q 777.406 421.963 776.085 422.152 L 776.085 422.152 L 776.085 422.265 L 776.085 422.379 L 776.085 422.379 Q 775.971 424.191 776.727 425.607 L 776.727 425.607 L 776.727 425.607 Q 777.482 427.023 778.766 428.005 L 778.766 428.005 L 778.766 428.005 Q 780.049 428.987 781.692 429.534 L 781.692 429.534 L 781.692 429.534 Q 783.334 430.082 784.996 430.119 L 784.996 430.119 L 784.996 430.119 Q 786.166 430.157 787.28 429.912 L 787.28 429.912 L 787.28 429.912 Q 788.394 429.666 789.357 429.138 L 789.357 429.138 L 789.357 429.138 Q 790.32 428.609 791.075 427.778 L 791.075 427.778 L 791.075 427.778 Q 791.83 426.948 792.283 425.777 L 792.283 425.777 L 792.283 425.777 Q 792.736 424.795 792.944 423.719 L 792.944 423.719 L 792.944 423.719 Q 793.152 422.643 793.095 421.586 L 793.095 421.586 L 793.095 421.586 Q 793.038 420.529 792.699 419.528 L 792.699 419.528 L 792.699 419.528 Q 792.359 418.527 791.679 417.659 L 791.679 417.659 L 791.679 417.659 Q 790.584 416.035 788.866 414.978 L 788.866 414.978 L 788.866 414.978 Q 787.148 413.921 785.147 413.694 L 785.147 413.694 L 785.147 413.694 Q 784.354 413.581 783.674 413.279 L 783.674 413.279 L 783.674 413.279 Q 782.995 412.977 782.693 412.071 L 782.693 412.071 L 782.693 412.071 Q 782.655 411.806 782.636 411.561 L 782.636 411.561 L 782.636 411.561 Q 782.617 411.315 782.693 411.051 L 782.693 411.051 L 782.693 411.051 Q 782.844 409.994 783.693 409.616 L 783.693 409.616 L 783.693 409.616 Q 784.543 409.239 785.449 409.428 L 785.449 409.428 L 785.449 409.428 Q 786.355 409.616 786.997 410.296 L 786.997 410.296 L 786.997 410.296 Q 787.639 410.976 787.412 411.995 L 787.412 411.995 L 787.412 411.995 Q 788.734 412.373 790.244 412.316 L 790.244 412.316 L 790.244 412.316 Q 791.755 412.259 793.076 412.033 L 793.076 412.033 L 793.114 412.033 L 793.114 412.033 Z " fill-rule="evenodd" fill="rgb(255,0,55)"/></g></svg>